<?xml version="1.0" standalone="no"?>
<!DOCTYPE svg PUBLIC "-//W3C//DTD SVG 20010904//EN"
        "http://www.w3.org/TR/2001/REC-SVG-20010904/DTD/svg10.dtd">
<svg version="1.0" xmlns="http://www.w3.org/2000/svg"
     width="222.000000pt" height="227.000000pt" viewBox="0 0 222.000000 227.000000"
     preserveAspectRatio="xMidYMid meet">

    <g transform="translate(0.000000,227.000000) scale(0.100000,-0.100000)"
       fill="#000000" stroke="none">
        <path d="M940 2220 c-570 -92 -982 -627 -920 -1194 29 -264 124 -468 309 -659
363 -377 943 -441 1383 -155 252 164 425 422 483 721 18 97 19 285 0 391 -74
423 -389 765 -803 873 -78 20 -126 26 -247 28 -82 2 -175 0 -205 -5z m342
-458 c247 -122 301 -444 106 -634 -180 -175 -472 -142 -606 70 -135 212 -37
496 200 582 40 15 75 19 143 17 80 -2 99 -6 157 -35z m12 -886 c176 -49 299
-130 410 -269 47 -59 96 -146 96 -170 0 -31 -186 -161 -297 -207 -146 -61
-212 -74 -388 -74 -144 -1 -170 2 -257 26 -145 41 -288 118 -398 215 l-44 40
43 75 c110 192 300 331 510 373 85 17 249 12 325 -9z"/>
    </g>
</svg>
