<svg xmlns="http://www.w3.org/2000/svg" width="185.0399932861328"
     height="133.39999389648438" style="">
    <rect id="backgroundrect" width="100%" height="100%" x="0" y="0" fill="none" stroke="none" class="" style=""/>
    <defs>
        <style>.cls-1{fill:url(#linear-gradient);}</style>
        <linearGradient id="linear-gradient" y1="66.69999694824219" x2="185.0399932861328" y2="66.69999694824219"
                        gradientUnits="userSpaceOnUse">
            <stop offset="0" stop-color="#90cea1"/>
            <stop offset="0.56" stop-color="#3cbec9"/>
            <stop offset="1" stop-color="#00b3e5"/>
        </linearGradient>
    </defs>
    <title>Asset 4</title>
    <g class="currentLayer" style="">
        <title>Layer 1</title>
        <g id="Layer_2" data-name="Layer 2" class="" opacity="0.49">
            <g id="Layer_1-2" data-name="Layer 1" opacity="0.49">
                <path class="cls-1"
                      d="M51.06,66.70000000004518 h0 A17.67,17.67 0 0 1 68.73,49.00000000004517 h-0.1 A17.67,17.67 0 0 1 86.3,66.70000000004518 h0 A17.67,17.67 0 0 1 68.63,84.37000000004518 h0.1 A17.67,17.67 0 0 1 51.06,66.70000000004518 zm82.67,-31.33 h32.9 A17.67,17.67 0 0 0 184.3,17.70000000004517 h0 A17.67,17.67 0 0 0 166.63,4.517075255505709e-11 h-32.9 A17.67,17.67 0 0 0 116.06,17.70000000004517 h0 A17.67,17.67 0 0 0 133.73,35.37000000004517 zm-113,98 h63.9 A17.67,17.67 0 0 0 102.3,115.70000000004518 h0 A17.67,17.67 0 0 0 84.63,98.00000000004518 H20.73 A17.67,17.67 0 0 0 3.06,115.70000000004518 h0 A17.67,17.67 0 0 0 20.73,133.37000000004517 zm83.92,-49 h6.25 L125.5,49.00000000004517 h-8.35 l-8.9,23.2 h-0.1 L99.4,49.00000000004517 H90.5 zm32.45,0 h7.8 V49.00000000004517 h-7.8 zm22.2,0 h24.95 V77.20000000004518 H167.1 V70.00000000004518 h15.35 V62.800000000045166 H167.1 V56.20000000004517 h16.25 V49.00000000004517 h-24 zM10.1,35.40000000004517 h7.8 V6.900000000045171 H28 V4.517075255505709e-11 H0 V6.900000000045171 H10.1 zM39,35.40000000004517 h7.8 V20.10000000004517 H61.9 V35.40000000004517 h7.8 V4.517075255505709e-11 H61.9 V13.20000000004517 H46.75 V4.517075255505709e-11 H39 zm41.25,0 h25 V28.20000000004517 H88 V21.00000000004517 h15.35 V13.800000000045172 H88 V7.200000000045171 h16.25 V4.517075255505709e-11 h-24 zm-79,49 H9 V57.25000000004517 h0.1 l9,27.15 H24 l9.3,-27.15 h0.1 V84.40000000004518 h7.8 V49.00000000004517 H29.45 l-8.2,23.1 h-0.1 L13,49.00000000004517 H1.2 zm112.09,49 H126 a24.59,24.59 0 0 0 7.5600000000000005,-1.15 a19.52,19.52 0 0 0 6.35,-3.37 a16.37,16.37 0 0 0 4.37,-5.5 A16.91,16.91 0 0 0 146,115.80000000004517 a18.5,18.5 0 0 0 -1.6800000000000002,-8.25 a15.1,15.1 0 0 0 -4.52,-5.53 A18.55,18.55 0 0 0 133.07,99.00000000004518 A33.54,33.54 0 0 0 125,98.00000000004518 H113.29 zm7.8100000000000005,-28.2 h4.6 a17.43,17.43 0 0 1 4.67,0.6200000000000001 a11.68,11.68 0 0 1 3.88,1.8800000000000001 a9,9 0 0 1 2.62,3.18 a9.870000000000001,9.870000000000001 0 0 1 1,4.52 a11.92,11.92 0 0 1 -1,5.08 a8.69,8.69 0 0 1 -2.67,3.34 a10.870000000000001,10.870000000000001 0 0 1 -4,1.83 a21.57,21.57 0 0 1 -5,0.55 H121.1 zm36.14,28.2 h14.5 a23.11,23.11 0 0 0 4.73,-0.5 a13.38,13.38 0 0 0 4.27,-1.6500000000000001 a9.42,9.42 0 0 0 3.1,-3 a8.52,8.52 0 0 0 1.2,-4.68 a9.16,9.16 0 0 0 -0.55,-3.2 a7.79,7.79 0 0 0 -1.57,-2.62 a8.38,8.38 0 0 0 -2.45,-1.85 a10,10 0 0 0 -3.18,-1 v-0.1 a9.28,9.28 0 0 0 4.43,-2.8200000000000003 a7.42,7.42 0 0 0 1.6700000000000002,-5 a8.34,8.34 0 0 0 -1.15,-4.65 a7.88,7.88 0 0 0 -3,-2.73 a12.9,12.9 0 0 0 -4.17,-1.3 a34.42,34.42 0 0 0 -4.63,-0.32000000000000006 h-13.2 zm7.8,-28.8 h5.3 a10.79,10.79 0 0 1 1.85,0.17 a5.77,5.77 0 0 1 1.7000000000000002,0.5800000000000001 a3.33,3.33 0 0 1 1.23,1.13 a3.22,3.22 0 0 1 0.47000000000000003,1.82 a3.63,3.63 0 0 1 -0.42000000000000004,1.8 a3.34,3.34 0 0 1 -1.13,1.2 a4.78,4.78 0 0 1 -1.57,0.6500000000000001 a8.16,8.16 0 0 1 -1.78,0.2 H165 zm0,14.15 h5.9 a15.12,15.12 0 0 1 2.05,0.15000000000000002 a7.83,7.83 0 0 1 2,0.55 a4,4 0 0 1 1.58,1.17 a3.13,3.13 0 0 1 0.6200000000000001,2 a3.71,3.71 0 0 1 -0.47000000000000003,1.9500000000000002 a4,4 0 0 1 -1.23,1.3 a4.78,4.78 0 0 1 -1.6700000000000002,0.7000000000000001 a8.91,8.91 0 0 1 -1.83,0.2 h-7 z"
                      id="svg_1" opacity="0.49"/>
            </g>
        </g>
    </g>
</svg>